<?xml version="1.0" standalone="no"?>
<!DOCTYPE svg PUBLIC "-//W3C//DTD SVG 20010904//EN"
 "http://www.w3.org/TR/2001/REC-SVG-20010904/DTD/svg10.dtd">
<svg version="1.0" xmlns="http://www.w3.org/2000/svg"
 width="642.000000pt" height="108.000000pt" viewBox="0 0 642.000000 108.000000"
 preserveAspectRatio="xMidYMid meet">

<g transform="translate(0.000000,108.000000) scale(0.100000,-0.100000)"
fill="#000000" stroke="none">
<path d="M82 543 l3 -378 85 0 85 0 5 190 c4 147 8 185 16 170 6 -11 35 -92
64 -180 29 -88 57 -166 63 -173 7 -9 32 -12 81 -10 l71 3 67 195 66 195 4
-195 3 -195 78 -3 c50 -2 84 1 93 9 12 9 14 73 14 364 0 195 -3 360 -6 369 -5
13 -26 16 -128 16 l-122 0 -69 -215 c-38 -118 -71 -215 -75 -215 -3 0 -37 96
-75 213 l-70 212 -128 3 -127 3 2 -378z"/>
<path d="M972 843 l3 -78 73 -3 c92 -4 102 4 102 73 0 85 0 85 -96 85 l-85 0
3 -77z"/>
<path d="M1802 843 l3 -78 73 -3 c92 -4 102 4 102 73 0 85 0 85 -96 85 l-85 0
3 -77z"/>
<path d="M3522 543 l3 -378 73 -3 c46 -2 79 2 88 9 12 9 14 73 14 364 0 195
-3 360 -6 369 -5 13 -23 16 -90 16 l-84 0 2 -377z"/>
<path d="M3988 908 c-6 -16 177 -727 189 -739 6 -6 50 -9 98 -7 l89 3 12 50
c7 28 29 122 50 210 l39 160 50 -210 51 -210 94 0 95 0 22 85 c97 359 169 647
165 658 -3 9 -28 12 -95 10 l-90 -3 -48 -200 c-26 -110 -48 -202 -49 -205 -1
-3 -25 87 -54 200 l-51 205 -90 0 -90 0 -51 -200 c-28 -110 -54 -193 -58 -185
-3 8 -24 96 -46 194 -23 99 -43 183 -46 188 -9 14 -181 10 -186 -4z"/>
<path d="M5495 907 c-3 -6 -4 -176 -3 -377 l3 -365 70 -3 c39 -2 79 2 91 8 17
10 28 9 52 -4 43 -22 146 -21 197 3 79 35 132 126 142 239 11 135 -38 253
-127 301 -61 34 -159 35 -213 3 l-37 -21 0 114 0 115 -85 0 c-59 0 -87 -4 -90
-13z m339 -357 c62 -74 33 -225 -47 -245 -64 -17 -117 45 -117 138 0 94 31
136 102 137 28 0 42 -7 62 -30z"/>
<path d="M6144 904 c-30 -15 -74 -78 -74 -106 0 -47 58 -111 111 -123 66 -15
156 66 146 132 -8 45 -36 84 -74 99 -42 18 -70 17 -109 -2z m114 -44 c83 -78
-27 -202 -112 -127 -40 34 -43 77 -11 115 33 39 88 44 123 12z"/>
<path d="M6160 800 c0 -33 4 -60 10 -60 6 0 10 9 10 20 0 13 7 20 20 20 13 0
20 -7 20 -20 0 -39 17 -19 24 26 7 57 -4 74 -50 74 l-34 0 0 -60z m55 20 c3
-5 -1 -10 -9 -10 -9 0 -16 5 -16 10 0 6 4 10 9 10 6 0 13 -4 16 -10z"/>
<path d="M1457 726 c-20 -8 -44 -19 -52 -26 -12 -10 -16 -9 -21 4 -9 23 -159
24 -168 0 -3 -9 -6 -129 -6 -269 0 -205 3 -255 14 -264 9 -7 42 -11 88 -9 l73
3 5 175 c5 187 12 214 56 230 35 14 57 12 80 -4 17 -13 19 -31 24 -208 l5
-193 85 0 85 0 3 210 c3 234 -4 273 -59 319 -53 45 -139 58 -212 32z"/>
<path d="M2297 726 c-20 -8 -44 -19 -52 -26 -12 -10 -15 -9 -15 4 0 13 -13 16
-85 16 l-85 0 2 -277 3 -278 85 0 85 0 5 180 c3 99 9 188 14 198 11 22 38 37
69 37 47 0 52 -19 57 -224 l5 -191 73 -3 c46 -2 79 2 88 9 11 9 14 48 14 186
0 171 0 174 25 198 28 28 66 32 89 9 13 -13 16 -45 16 -198 0 -128 4 -186 12
-194 18 -18 152 -16 168 3 9 10 11 70 8 222 -4 230 -7 243 -72 301 -60 53
-169 55 -243 5 -29 -20 -40 -23 -53 -14 -65 49 -142 62 -213 37z"/>
<path d="M3089 727 c-88 -25 -141 -87 -143 -167 l-1 -35 78 -3 78 -3 14 34
c16 38 31 47 76 47 43 0 69 -17 69 -45 0 -27 -2 -28 -128 -50 -159 -26 -212
-71 -212 -180 0 -81 41 -144 109 -166 56 -19 154 -15 200 8 32 16 41 17 45 7
7 -19 159 -19 175 -1 6 8 7 17 3 21 -4 4 -9 101 -12 214 -5 194 -6 209 -28
244 -33 53 -94 79 -195 84 -49 2 -100 -1 -128 -9z m171 -358 c0 -72 -109 -121
-145 -65 -22 34 -6 63 43 75 102 26 102 26 102 -10z"/>
<path d="M5110 731 c-76 -23 -137 -80 -174 -160 -30 -67 -29 -197 3 -269 83
-187 364 -213 476 -44 14 21 27 52 31 70 l7 32 -86 0 c-85 0 -87 0 -101 -29
-17 -32 -34 -41 -79 -41 -36 1 -58 15 -75 47 -28 52 -26 52 166 55 l177 3 -2
67 c-2 124 -76 233 -176 263 -54 16 -126 18 -167 6z m139 -167 c12 -15 21 -31
21 -35 0 -5 -38 -9 -85 -9 l-86 0 16 29 c17 34 27 39 77 40 28 1 41 -5 57 -25z"/>
<path d="M972 443 l3 -278 73 -3 c46 -2 79 2 88 9 11 9 14 59 14 264 0 140 -3
260 -6 269 -5 13 -23 16 -90 16 l-84 0 2 -277z"/>
<path d="M1802 443 l3 -278 73 -3 c46 -2 79 2 88 9 11 9 14 59 14 264 0 140
-3 260 -6 269 -5 13 -23 16 -90 16 l-84 0 2 -277z"/>
</g>
</svg>
