<?xml version="1.0" standalone="no"?>
<!DOCTYPE svg PUBLIC "-//W3C//DTD SVG 20010904//EN"
 "http://www.w3.org/TR/2001/REC-SVG-20010904/DTD/svg10.dtd">
<svg version="1.0" xmlns="http://www.w3.org/2000/svg"
 width="2366.000000pt" height="492.000000pt" viewBox="0 0 2366.000000 492.000000"
 preserveAspectRatio="xMidYMid meet">

<g transform="translate(0.000000,492.000000) scale(0.100000,-0.100000)"
fill="#000000" stroke="none">
<path d="M3525 4830 c-10 -11 -24 -20 -30 -20 -25 0 -115 -102 -147 -167 l-33
-68 0 -2115 0 -2115 33 -60 c43 -76 104 -140 165 -171 26 -13 47 -31 47 -39 0
-13 27 -15 175 -15 144 0 175 3 175 14 0 8 24 28 53 44 62 36 111 86 124 127
5 17 13 28 18 27 4 -2 12 2 16 10 5 7 9 993 9 2190 0 2127 0 2178 -19 2187
-10 6 -23 23 -29 38 -11 33 -53 77 -104 109 -21 14 -38 29 -38 34 0 6 -74 10
-198 10 -186 0 -200 -1 -217 -20z"/>
<path d="M1670 4177 c-53 -12 -71 -21 -151 -74 -33 -21 -89 -93 -118 -150 -8
-16 -11 -426 -11 -1472 0 -1630 -8 -1476 77 -1578 98 -118 272 -168 442 -128
136 33 235 116 284 242 l27 71 0 1400 c0 897 -3 1403 -10 1407 -5 3 -15 25
-21 48 -20 76 -103 163 -198 208 -55 26 -78 31 -165 34 -62 3 -122 0 -156 -8z"/>
<path d="M9420 3830 c-295 -37 -476 -194 -552 -482 -22 -82 -22 -96 -25 -859
-4 -872 -5 -860 66 -1004 22 -44 61 -103 86 -132 86 -98 237 -179 379 -204 95
-16 380 -7 466 16 232 61 385 213 434 432 13 58 16 134 16 387 l0 316 -294 0
-295 0 -3 -282 c-3 -254 -5 -287 -22 -321 -24 -49 -56 -70 -111 -71 -53 -1
-92 24 -120 80 -19 38 -20 59 -20 784 0 817 -1 796 59 835 64 42 160 24 193
-37 16 -29 18 -64 21 -280 l4 -248 294 0 294 0 0 258 c-1 283 -11 374 -54 468
-75 163 -223 275 -427 324 -99 23 -282 33 -389 20z"/>
<path d="M11850 3830 c-295 -37 -476 -194 -552 -482 -22 -82 -22 -96 -25 -859
-4 -872 -5 -860 66 -1004 22 -44 61 -103 86 -132 86 -98 237 -179 379 -204 95
-16 380 -7 466 16 232 61 385 213 434 432 13 58 16 134 16 387 l0 316 -294 0
-295 0 -3 -282 c-3 -254 -5 -287 -22 -321 -24 -49 -56 -70 -111 -71 -53 -1
-92 24 -120 80 -19 38 -20 59 -20 784 0 817 -1 796 59 835 64 42 160 24 193
-37 16 -29 18 -64 21 -280 l4 -248 294 0 294 0 0 258 c-1 283 -11 374 -54 468
-75 163 -223 275 -427 324 -99 23 -282 33 -389 20z"/>
<path d="M13482 3830 c-263 -33 -429 -141 -521 -340 -62 -133 -62 -143 -59
-1015 4 -884 -1 -828 78 -994 80 -168 241 -288 439 -327 107 -21 374 -15 466
11 147 41 266 124 343 239 58 86 84 152 107 263 14 68 15 179 13 878 l-3 800
-27 75 c-38 109 -74 167 -143 235 -73 73 -174 126 -294 154 -99 24 -294 34
-399 21z m223 -504 c54 -35 55 -56 55 -825 0 -743 -3 -795 -45 -841 -10 -11
-35 -25 -56 -32 -32 -9 -46 -8 -83 6 -37 14 -49 26 -68 64 l-23 47 0 745 0
745 24 41 c21 38 39 53 81 68 25 9 89 -1 115 -18z"/>
<path d="M20000 3830 c-295 -37 -476 -194 -552 -482 -22 -82 -22 -96 -25 -859
-4 -872 -5 -860 66 -1004 22 -44 61 -103 86 -132 86 -98 237 -179 379 -204 95
-16 380 -7 466 16 232 61 385 213 434 432 13 58 16 134 16 387 l0 316 -294 0
-295 0 -3 -282 c-3 -254 -5 -287 -22 -321 -24 -49 -56 -70 -111 -71 -53 -1
-92 24 -120 80 -19 38 -20 59 -20 784 0 817 -1 796 59 835 64 42 160 24 193
-37 16 -29 18 -64 21 -280 l4 -248 294 0 294 0 0 258 c-1 283 -11 374 -54 468
-75 163 -223 275 -427 324 -99 23 -282 33 -389 20z"/>
<path d="M5800 2485 l0 -1325 610 0 610 0 0 260 0 260 -310 0 -310 0 0 300 0
300 280 0 280 0 0 250 0 250 -277 2 -278 3 0 255 0 255 288 3 287 2 0 255 0
255 -590 0 -590 0 0 -1325z"/>
<path d="M7220 2485 l0 -1325 300 0 300 0 0 605 0 605 43 0 c23 -1 65 -9 92
-18 89 -30 85 -2 85 -639 l0 -553 288 0 289 0 7 523 c7 572 4 613 -45 715 -33
67 -81 108 -157 133 l-34 11 63 34 c34 19 75 45 90 60 35 33 78 113 95 178 35
127 35 447 -1 616 -38 184 -127 294 -284 353 -54 21 -74 22 -593 25 l-538 3 0
-1326z m809 819 c13 -9 29 -31 37 -49 20 -49 28 -200 14 -275 -23 -127 -54
-153 -178 -148 l-77 3 -3 243 -2 242 93 0 c69 0 98 -4 116 -16z"/>
<path d="M14590 2485 l0 -1325 290 0 290 0 2 646 3 646 144 -646 145 -646 288
0 288 0 0 1325 0 1325 -285 0 -285 0 -2 -617 -3 -617 -129 604 c-71 333 -131
611 -134 618 -3 9 -74 12 -308 12 l-304 0 0 -1325z"/>
<path d="M16310 2485 l0 -1325 290 0 290 0 2 646 3 646 144 -646 145 -646 288
0 288 0 0 1325 0 1325 -285 0 -285 0 -2 -617 -3 -617 -129 604 c-71 333 -131
611 -134 618 -3 9 -74 12 -308 12 l-304 0 0 -1325z"/>
<path d="M18020 2485 l0 -1325 610 0 610 0 0 260 0 260 -310 0 -310 0 0 300 0
300 280 0 280 0 0 250 0 250 -277 2 -278 3 0 255 0 255 288 3 287 2 0 255 0
255 -590 0 -590 0 0 -1325z"/>
<path d="M20970 3555 l0 -255 180 0 180 0 0 -1070 0 -1070 295 0 295 0 0 1070
0 1070 175 0 175 0 0 255 0 255 -650 0 -650 0 0 -255z"/>
<path d="M2585 3423 c-58 -22 -82 -39 -141 -98 -67 -67 -72 -76 -93 -153 -21
-80 -22 -88 -18 -724 3 -590 4 -647 21 -697 26 -76 105 -165 186 -210 l65 -36
150 0 150 0 62 33 c72 38 139 109 177 185 l26 54 0 696 0 695 -27 53 c-48 97
-129 168 -236 208 -86 32 -227 29 -322 -6z"/>
</g>
</svg>
