<?xml version="1.0" standalone="no"?>
<!DOCTYPE svg PUBLIC "-//W3C//DTD SVG 20010904//EN"
 "http://www.w3.org/TR/2001/REC-SVG-20010904/DTD/svg10.dtd">
<svg version="1.0" xmlns="http://www.w3.org/2000/svg"
 width="2366.000000pt" height="492.000000pt" viewBox="0 0 2366.000000 492.000000"
 preserveAspectRatio="xMidYMid meet">
<metadata>
Created by potrace 1.16, written by Peter Selinger 2001-2019
</metadata>
<g transform="translate(0.000000,492.000000) scale(0.100000,-0.100000)"
fill="#000000" stroke="none">
<path d="M3522 4873 c-28 -5 -192 -160 -192 -180 0 -9 -10 -32 -22 -52 l-23
-36 0 -2136 0 -2136 29 -59 c29 -59 140 -184 163 -184 7 0 24 -12 38 -27 l25
-28 195 0 c188 0 195 1 217 23 13 12 47 40 76 62 28 22 63 57 76 78 13 20 31
43 40 51 15 12 16 189 16 2217 l0 2203 -29 30 c-16 17 -32 38 -35 48 -7 23
-87 90 -135 115 -31 16 -60 18 -226 17 -104 -1 -200 -4 -213 -6z m406 -64 c2
-5 20 -18 40 -28 44 -23 77 -57 87 -91 4 -14 17 -35 29 -48 l21 -24 0 -2148 0
-2148 -22 -24 c-13 -14 -23 -30 -23 -37 0 -43 -73 -111 -135 -127 -14 -4 -32
-15 -38 -25 -11 -17 -26 -19 -153 -19 -119 0 -144 3 -155 16 -8 9 -32 25 -55
34 -54 24 -118 91 -152 160 l-27 55 0 2115 0 2115 22 35 c13 19 23 42 23 50 0
16 89 110 104 110 5 0 18 7 28 17 10 9 34 19 54 22 58 10 349 2 352 -10z"/>
<path d="M1645 4211 c-75 -20 -176 -94 -234 -171 -52 -69 -51 -28 -51 -1565 0
-1154 3 -1440 13 -1482 9 -34 29 -69 62 -107 87 -102 181 -148 327 -160 97 -7
160 5 252 48 83 40 177 132 197 195 6 20 18 46 25 59 22 33 22 2867 0 2891 -7
9 -16 32 -20 51 -9 53 -117 167 -197 210 -63 33 -67 33 -204 36 -77 2 -153 0
-170 -5z m347 -91 c76 -36 154 -117 165 -172 3 -18 12 -42 20 -53 11 -16 13
-261 13 -1420 -1 -1215 -3 -1403 -15 -1419 -8 -11 -15 -30 -15 -42 0 -13 -22
-51 -50 -85 -37 -46 -65 -69 -112 -93 -62 -30 -66 -31 -203 -31 -136 0 -142 1
-200 30 -33 17 -79 50 -102 74 -79 82 -73 -35 -73 1575 0 1382 0 1439 18 1479
39 87 153 172 250 186 24 3 88 5 141 4 85 -2 104 -6 163 -33z"/>
<path d="M9408 3860 c-263 -42 -414 -146 -514 -355 -87 -182 -97 -301 -91
-1150 4 -741 3 -724 79 -884 79 -165 237 -288 443 -342 107 -29 328 -31 460
-5 284 55 448 200 517 455 19 67 21 112 26 392 3 227 1 323 -7 338 -12 21 -14
21 -329 19 l-317 -3 -5 -295 c-5 -272 -7 -298 -25 -328 -22 -36 -43 -45 -101
-40 -31 2 -43 10 -61 37 l-23 34 0 751 c0 695 1 754 18 786 22 45 72 60 129
39 55 -21 61 -56 62 -336 1 -219 2 -233 20 -243 12 -6 129 -10 310 -10 256 0
292 2 306 16 15 15 16 49 13 318 -4 295 -4 303 -31 381 -71 214 -243 356 -498
411 -88 19 -301 27 -381 14z m422 -79 c220 -65 361 -199 416 -398 12 -44 17
-122 21 -330 l5 -273 -276 0 -276 0 0 228 c0 125 -5 243 -10 263 -5 19 -23 48
-40 64 -24 23 -41 30 -88 33 -80 6 -124 -14 -154 -70 l-23 -43 0 -765 c0 -754
0 -766 21 -804 31 -61 65 -81 134 -81 67 0 102 20 135 76 19 31 20 55 23 317
l3 282 275 0 274 0 0 -290 c0 -329 -9 -397 -65 -518 -66 -141 -196 -238 -383
-284 -117 -30 -391 -33 -492 -5 -228 61 -398 229 -451 447 -11 44 -14 210 -14
830 l0 775 24 93 c51 205 147 336 301 410 126 61 193 72 395 68 138 -3 184 -8
245 -25z"/>
<path d="M11838 3860 c-263 -42 -414 -146 -514 -355 -87 -182 -97 -301 -91
-1150 4 -741 3 -724 79 -884 79 -165 237 -288 443 -342 107 -29 328 -31 460
-5 284 55 448 200 517 455 19 67 21 112 26 392 3 227 1 323 -7 338 -12 21 -14
21 -329 19 l-317 -3 -5 -295 c-5 -272 -7 -298 -25 -328 -22 -36 -43 -45 -101
-40 -31 2 -43 10 -61 37 l-23 34 0 751 c0 695 1 754 18 786 22 45 72 60 129
39 55 -21 61 -56 62 -336 1 -219 2 -233 20 -243 12 -6 129 -10 310 -10 256 0
292 2 306 16 15 15 16 49 13 318 -4 295 -4 303 -31 381 -71 214 -243 356 -498
411 -88 19 -301 27 -381 14z m422 -79 c220 -65 361 -199 416 -398 12 -44 17
-122 21 -330 l5 -273 -276 0 -276 0 0 228 c0 125 -5 243 -10 263 -5 19 -23 48
-40 64 -24 23 -41 30 -88 33 -80 6 -124 -14 -154 -70 l-23 -43 0 -765 c0 -754
0 -766 21 -804 31 -61 65 -81 134 -81 67 0 102 20 135 76 19 31 20 55 23 317
l3 282 275 0 274 0 0 -290 c0 -329 -9 -397 -65 -518 -66 -141 -196 -238 -383
-284 -117 -30 -391 -33 -492 -5 -228 61 -398 229 -451 447 -11 44 -14 210 -14
830 l0 775 24 93 c51 205 147 336 301 410 126 61 193 72 395 68 138 -3 184 -8
245 -25z"/>
<path d="M13445 3856 c-290 -46 -485 -209 -550 -461 -30 -115 -35 -244 -35
-880 1 -790 6 -863 84 -1030 86 -185 226 -298 430 -350 290 -73 603 -17 783
140 101 88 181 242 214 410 11 56 14 225 14 840 0 766 0 770 -23 850 -64 231
-193 371 -409 446 -131 45 -345 60 -508 35z m440 -70 c172 -48 306 -150 370
-281 73 -148 70 -109 70 -1000 l0 -800 -23 -78 c-51 -176 -154 -314 -287 -384
-117 -61 -199 -78 -390 -78 -132 1 -184 5 -235 19 -184 50 -315 154 -388 307
-80 168 -77 125 -77 1019 0 882 -3 842 67 990 40 84 141 186 225 229 55 27
158 60 233 75 61 11 376 -2 435 -18z"/>
<path d="M13560 3359 c-41 -17 -68 -49 -85 -99 -14 -41 -15 -138 -13 -791 3
-730 3 -745 24 -783 28 -54 63 -78 122 -84 70 -6 115 17 144 76 l23 47 3 740
c2 512 0 756 -8 791 -16 75 -53 107 -127 111 -32 1 -69 -2 -83 -8z m113 -48
c52 -20 52 -17 52 -821 0 -725 -1 -746 -20 -785 -20 -40 -20 -40 -79 -40 -52
0 -61 3 -79 27 -11 15 -24 51 -28 80 -12 84 -10 1396 2 1448 19 82 79 118 152
91z"/>
<path d="M19988 3860 c-263 -42 -414 -146 -514 -355 -87 -182 -97 -301 -91
-1150 4 -741 3 -724 79 -884 79 -165 237 -288 443 -342 107 -29 328 -31 460
-5 284 55 448 200 517 455 19 67 21 112 26 392 3 227 1 323 -7 338 -12 21 -14
21 -329 19 l-317 -3 -5 -295 c-5 -272 -7 -298 -25 -328 -22 -36 -43 -45 -101
-40 -31 2 -43 10 -61 37 l-23 34 0 751 c0 695 1 754 18 786 22 45 72 60 129
39 55 -21 61 -56 62 -336 1 -219 2 -233 20 -243 12 -6 129 -10 310 -10 256 0
292 2 306 16 15 15 16 49 13 318 -4 295 -4 303 -31 381 -71 214 -243 356 -498
411 -88 19 -301 27 -381 14z m422 -79 c220 -65 361 -199 416 -398 12 -44 17
-122 21 -330 l5 -273 -276 0 -276 0 0 228 c0 125 -5 243 -10 263 -5 19 -23 48
-40 64 -24 23 -41 30 -88 33 -80 6 -124 -14 -154 -70 l-23 -43 0 -765 c0 -754
0 -766 21 -804 31 -61 65 -81 134 -81 67 0 102 20 135 76 19 31 20 55 23 317
l3 282 275 0 274 0 0 -290 c0 -329 -9 -397 -65 -518 -66 -141 -196 -238 -383
-284 -117 -30 -391 -33 -492 -5 -228 61 -398 229 -451 447 -11 44 -14 210 -14
830 l0 775 24 93 c51 205 147 336 301 410 126 61 193 72 395 68 138 -3 184 -8
245 -25z"/>
<path d="M5782 3828 c-17 -17 -17 -2669 0 -2686 17 -17 1239 -17 1256 0 9 9
12 84 12 278 0 194 -3 269 -12 278 -9 9 -90 12 -305 12 l-293 0 0 270 0 270
263 0 c191 0 266 3 275 12 9 9 12 83 12 269 0 221 -2 260 -16 273 -13 14 -52
16 -275 16 l-259 0 0 225 0 225 280 0 c266 0 280 1 290 19 6 12 10 115 10 266
0 151 -4 254 -10 266 -10 18 -28 19 -613 19 -456 0 -606 -3 -615 -12z m1178
-273 l0 -235 -287 -2 -288 -3 0 -275 0 -275 278 -3 277 -2 0 -225 0 -225 -268
0 c-195 0 -271 -3 -280 -12 -17 -17 -17 -619 0 -636 9 -9 92 -12 310 -12 l298
0 0 -235 0 -235 -590 0 -590 0 0 1305 0 1305 570 0 570 0 0 -235z"/>
<path d="M7202 3828 c-17 -17 -17 -2669 0 -2686 17 -17 619 -17 636 0 9 9 12
157 12 606 l0 594 43 -7 c69 -10 95 -24 106 -57 7 -21 11 -217 11 -577 0 -412
3 -550 12 -559 9 -9 91 -12 309 -12 252 0 298 2 309 15 10 12 13 144 14 578 1
504 -1 568 -16 617 -25 79 -71 146 -123 179 l-46 29 35 21 c115 72 178 214
192 438 7 122 -8 328 -32 436 -47 207 -169 338 -355 382 -85 20 -1087 23
-1107 3z m1071 -52 c265 -51 367 -241 367 -687 0 -291 -60 -427 -217 -500 -66
-31 -79 -53 -40 -68 125 -49 166 -88 197 -189 19 -61 20 -95 20 -608 l0 -544
-265 0 -265 0 0 508 c0 279 -4 534 -10 566 -16 98 -72 136 -204 136 l-56 0 0
-605 0 -605 -280 0 -280 0 0 1305 0 1305 479 0 c375 0 496 -3 554 -14z"/>
<path d="M7805 3327 c-3 -7 -4 -125 -3 -262 l3 -250 101 -3 c97 -3 103 -1 132
23 52 44 67 101 67 255 0 224 -20 250 -193 250 -74 0 -104 -4 -107 -13z m216
-56 c23 -18 24 -26 27 -162 3 -114 0 -151 -13 -186 -21 -54 -38 -63 -114 -63
l-61 0 0 215 0 215 69 0 c53 0 74 -4 92 -19z"/>
<path d="M14572 3828 c-17 -17 -17 -2669 0 -2686 18 -18 601 -17 617 1 7 10
12 168 13 527 l3 514 114 -515 c62 -283 118 -520 124 -526 15 -19 600 -18 616
1 8 10 10 371 9 1352 l-3 1339 -301 3 c-244 2 -303 0 -313 -11 -7 -10 -12
-156 -13 -491 l-3 -478 -99 469 c-54 257 -105 478 -113 491 l-13 22 -313 0
c-230 0 -316 -3 -325 -12z m612 -55 c3 -10 62 -286 132 -613 70 -327 131 -601
137 -608 7 -9 13 -9 23 -1 12 9 14 118 14 625 l0 614 265 0 265 0 0 -1305 0
-1305 -268 0 -269 0 -142 643 c-79 353 -148 648 -153 655 -8 9 -14 9 -24 1
-12 -9 -14 -123 -14 -655 l0 -644 -270 0 -270 0 0 1305 0 1305 284 0 c262 0
285 -1 290 -17z"/>
<path d="M16292 3828 c-17 -17 -17 -2669 0 -2686 18 -18 601 -17 617 1 7 10
12 168 13 527 l3 514 114 -515 c62 -283 118 -520 124 -526 15 -19 600 -18 616
1 8 10 10 371 9 1352 l-3 1339 -301 3 c-244 2 -303 0 -313 -11 -7 -10 -12
-156 -13 -491 l-3 -478 -99 469 c-54 257 -105 478 -113 491 l-13 22 -313 0
c-230 0 -316 -3 -325 -12z m612 -55 c3 -10 62 -286 132 -613 70 -327 131 -601
137 -608 7 -9 13 -9 23 -1 12 9 14 118 14 625 l0 614 265 0 265 0 0 -1305 0
-1305 -268 0 -269 0 -142 643 c-79 353 -148 648 -153 655 -8 9 -14 9 -24 1
-12 -9 -14 -123 -14 -655 l0 -644 -270 0 -270 0 0 1305 0 1305 284 0 c262 0
285 -1 290 -17z"/>
<path d="M18002 3828 c-17 -17 -17 -2669 0 -2686 17 -17 1239 -17 1256 0 9 9
12 84 12 278 0 194 -3 269 -12 278 -9 9 -90 12 -305 12 l-293 0 0 270 0 270
263 0 c191 0 266 3 275 12 9 9 12 83 12 269 0 221 -2 260 -16 273 -13 14 -52
16 -275 16 l-259 0 0 225 0 225 280 0 c266 0 280 1 290 19 6 12 10 115 10 266
0 151 -4 254 -10 266 -10 18 -28 19 -613 19 -456 0 -606 -3 -615 -12z m1178
-273 l0 -235 -287 -2 -288 -3 0 -275 0 -275 278 -3 277 -2 0 -225 0 -225 -268
0 c-195 0 -271 -3 -280 -12 -17 -17 -17 -619 0 -636 9 -9 92 -12 310 -12 l298
0 0 -235 0 -235 -590 0 -590 0 0 1305 0 1305 570 0 570 0 0 -235z"/>
<path d="M20952 3828 c-9 -9 -12 -83 -12 -269 0 -221 2 -260 16 -273 13 -13
43 -16 175 -16 l159 0 0 -1054 c0 -945 2 -1056 16 -1070 13 -14 56 -16 318
-16 221 0 305 3 314 12 9 9 12 260 12 1070 l0 1058 163 0 c113 0 167 4 175 12
9 9 12 83 12 273 0 190 -3 264 -12 273 -17 17 -1319 17 -1336 0z m1298 -268
l0 -230 -168 0 c-117 0 -172 -4 -180 -12 -9 -9 -12 -262 -12 -1075 l0 -1063
-270 0 -270 0 0 1063 c0 813 -3 1066 -12 1075 -8 8 -62 12 -175 12 l-163 0 0
230 0 230 625 0 625 0 0 -230z"/>
<path d="M2550 3448 c-47 -22 -85 -51 -136 -104 -61 -63 -75 -84 -93 -142 -21
-66 -22 -74 -19 -747 3 -677 3 -680 25 -735 23 -57 134 -190 157 -190 8 0 24
-9 38 -19 76 -60 341 -69 438 -15 14 7 39 20 57 29 40 19 125 115 158 180 l26
50 0 716 0 715 -28 54 c-41 80 -135 172 -214 209 -64 30 -70 31 -205 31 -134
-1 -141 -2 -204 -32z m346 -49 c108 -34 175 -90 223 -191 l22 -47 0 -697 c0
-596 -2 -699 -15 -713 -8 -9 -17 -28 -21 -42 -9 -38 -73 -100 -141 -140 l-59
-34 -145 0 c-142 0 -146 1 -204 30 -35 18 -79 53 -110 87 -77 85 -77 80 -76
825 0 716 2 730 66 808 21 25 55 56 75 69 97 65 260 84 385 45z"/>
</g>
</svg>
