<?xml version="1.0" encoding="UTF-8"?>
<!DOCTYPE svg PUBLIC "-//W3C//DTD SVG 1.1//EN" "http://www.w3.org/Graphics/SVG/1.1/DTD/svg11.dtd">
<svg xmlns="http://www.w3.org/2000/svg" version="1.1" width="546px" height="118px" style="shape-rendering:geometricPrecision; text-rendering:geometricPrecision; image-rendering:optimizeQuality; fill-rule:evenodd; clip-rule:evenodd" xmlns:xlink="http://www.w3.org/1999/xlink">
<g><path style="opacity:0.325" fill="#00b09a" d="M 64.5,-0.5 C 66.8333,-0.5 69.1667,-0.5 71.5,-0.5C 73.7125,2.56349 76.3792,5.23016 79.5,7.5C 80.1272,8.41683 80.4606,9.41683 80.5,10.5C 76.7653,8.27536 73.432,5.44203 70.5,2C 64.846,0.50215 62.5126,2.66882 63.5,8.5C 62.3065,8.02959 61.6399,7.02959 61.5,5.5C 61.6284,3.0452 62.6284,1.0452 64.5,-0.5 Z"/></g>
<g><path style="opacity:1" fill="#01f2df" d="M 80.5,10.5 C 80.5,11.1667 80.5,11.8333 80.5,12.5C 76.7401,10.2458 73.4067,7.41242 70.5,4C 69.2068,3.50999 67.8734,3.34332 66.5,3.5C 66.3184,5.59136 66.6518,7.59136 67.5,9.5C 69.8232,11.9887 72.3232,14.3221 75,16.5C 76.8205,18.1458 77.9872,20.1458 78.5,22.5C 73.5,17.8333 68.5,13.1667 63.5,8.5C 62.5126,2.66882 64.846,0.50215 70.5,2C 73.432,5.44203 76.7653,8.27536 80.5,10.5 Z"/></g>
<g><path style="opacity:0.09" fill="#005f50" d="M 63.5,8.5 C 68.5,13.1667 73.5,17.8333 78.5,22.5C 84.8333,29.5 91.5,36.1667 98.5,42.5C 99.1098,43.391 99.4431,44.391 99.5,45.5C 88.208,34.5426 76.8747,23.5426 65.5,12.5C 64.3698,11.3777 63.7031,10.0443 63.5,8.5 Z"/></g>
<g><path style="opacity:0.231" fill="#00bea4" d="M 80.5,10.5 C 89.0363,16.8864 96.703,24.2198 103.5,32.5C 103.5,33.1667 103.5,33.8333 103.5,34.5C 96.1091,26.954 88.4424,19.6206 80.5,12.5C 80.5,11.8333 80.5,11.1667 80.5,10.5 Z"/></g>
<g><path style="opacity:1" fill="#01e8c8" d="M 80.5,12.5 C 88.4424,19.6206 96.1091,26.954 103.5,34.5C 104.806,36.4727 106.473,38.1394 108.5,39.5C 109.508,41.5439 110.508,43.5439 111.5,45.5C 112.338,45.8417 112.672,46.5084 112.5,47.5C 113.323,49.4546 113.49,51.4546 113,53.5C 111.878,51.5795 111.044,49.5795 110.5,47.5C 107.501,41.0317 103.168,35.5317 97.5,31C 95.316,30.5576 93.316,31.0576 91.5,32.5C 94.3172,35.8178 97.3172,38.9845 100.5,42C 99.9056,42.4643 99.2389,42.631 98.5,42.5C 91.5,36.1667 84.8333,29.5 78.5,22.5C 77.9872,20.1458 76.8205,18.1458 75,16.5C 72.3232,14.3221 69.8232,11.9887 67.5,9.5C 66.6518,7.59136 66.3184,5.59136 66.5,3.5C 67.8734,3.34332 69.2068,3.50999 70.5,4C 73.4067,7.41242 76.7401,10.2458 80.5,12.5 Z"/></g>
<g><path style="opacity:0.463" fill="#009383" d="M 51.5,14.5 C 51.226,16.9806 49.8927,18.6473 47.5,19.5C 47.5,18.8333 47.5,18.1667 47.5,17.5C 48.5451,16.1224 49.8784,15.1224 51.5,14.5 Z"/></g>
<g><path style="opacity:1" fill="#02e8cf" d="M 51.5,14.5 C 52.1667,14.5 52.8333,14.5 53.5,14.5C 54.6297,16.7954 55.963,18.9621 57.5,21C 56.7326,23.5827 55.3993,25.7493 53.5,27.5C 52.8333,27.5 52.1667,27.5 51.5,27.5C 50.7934,25.8656 49.6268,24.5323 48,23.5C 47.51,22.2068 47.3433,20.8734 47.5,19.5C 49.8927,18.6473 51.226,16.9806 51.5,14.5 Z"/></g>
<g><path style="opacity:0.173" fill="#004f42" d="M 47.5,17.5 C 47.5,18.1667 47.5,18.8333 47.5,19.5C 47.3433,20.8734 47.51,22.2068 48,23.5C 49.6268,24.5323 50.7934,25.8656 51.5,27.5C 47.6271,27.1253 45.6271,24.9586 45.5,21C 45.8082,19.5405 46.4749,18.3739 47.5,17.5 Z"/></g>
<g><path style="opacity:0.048" fill="#006252" d="M 53.5,14.5 C 55.1667,15.1667 56.8333,15.8333 58.5,16.5C 58.6646,19.5184 58.498,22.5184 58,25.5C 56.6703,26.5822 55.1703,27.2488 53.5,27.5C 55.3993,25.7493 56.7326,23.5827 57.5,21C 55.963,18.9621 54.6297,16.7954 53.5,14.5 Z"/></g>
<g><path style="opacity:0.948" fill="#202120" d="M 162.5,27.5 C 166.833,27.5 171.167,27.5 175.5,27.5C 175.5,48.1667 175.5,68.8333 175.5,89.5C 171.167,89.5 166.833,89.5 162.5,89.5C 162.5,68.8333 162.5,48.1667 162.5,27.5 Z"/></g>
<g><path style="opacity:0.931" fill="#202120" d="M 281.5,27.5 C 285.833,27.5 290.167,27.5 294.5,27.5C 294.333,38.505 294.5,49.505 295,60.5C 299.833,55 304.667,49.5 309.5,44C 314.5,43.3333 319.5,43.3333 324.5,44C 318.647,50.3521 312.98,56.8521 307.5,63.5C 312.917,72.416 318.917,80.916 325.5,89C 320.167,89.6667 314.833,89.6667 309.5,89C 305.622,83.4114 301.622,77.9114 297.5,72.5C 296.522,72.9767 295.689,73.6433 295,74.5C 294.501,79.4889 294.334,84.4889 294.5,89.5C 290.167,89.5 285.833,89.5 281.5,89.5C 281.5,68.8333 281.5,48.1667 281.5,27.5 Z"/></g>
<g><path style="opacity:0.926" fill="#202120" d="M 376.5,27.5 C 380.833,27.5 385.167,27.5 389.5,27.5C 389.5,48.1667 389.5,68.8333 389.5,89.5C 385.167,89.5 380.833,89.5 376.5,89.5C 376.662,87.4727 376.495,85.4727 376,83.5C 371.435,89.8019 365.268,91.9686 357.5,90C 347.261,85.8737 342.594,78.2071 343.5,67C 343.906,46.5478 353.572,39.5478 372.5,46C 374.049,47.214 375.215,48.714 376,50.5C 376.5,42.8406 376.666,35.1739 376.5,27.5 Z M 364.5,53.5 C 371.268,53.4335 375.101,56.7668 376,63.5C 377.691,74.4606 373.191,79.6273 362.5,79C 355.902,72.1835 355.068,64.6835 360,56.5C 361.652,55.6006 363.152,54.6006 364.5,53.5 Z"/></g>
<g><path style="opacity:0.129" fill="#032621" d="M 37.5,30.5 C 37.5,30.8333 37.5,31.1667 37.5,31.5C 36.8333,31.5 36.1667,31.5 35.5,31.5C 36.0059,29.8946 36.6726,29.5613 37.5,30.5 Z"/></g>
<g><path style="opacity:0.29" fill="#009883" d="M 35.5,31.5 C 36.1667,31.5 36.8333,31.5 37.5,31.5C 33.6122,33.3787 30.2789,36.0454 27.5,39.5C 27.238,38.0222 27.5713,36.6888 28.5,35.5C 30.0998,32.9035 32.4331,31.5702 35.5,31.5 Z"/></g>
<g><path style="opacity:0.031" fill="#005d4c" d="M 39.5,31.5 C 41.1898,31.8564 42.1898,32.8564 42.5,34.5C 40.8102,34.1436 39.8102,33.1436 39.5,31.5 Z"/></g>
<g><path style="opacity:0.18" fill="#005a4b" d="M 65.5,31.5 C 64.8333,33.5 63.5,34.8333 61.5,35.5C 61.9568,33.2273 63.2901,31.894 65.5,31.5 Z"/></g>
<g><path style="opacity:0.2" fill="#008d7b" d="M 103.5,32.5 C 106.509,33.8476 108.176,36.1809 108.5,39.5C 106.473,38.1394 104.806,36.4727 103.5,34.5C 103.5,33.8333 103.5,33.1667 103.5,32.5 Z"/></g>
<g><path style="opacity:1" fill="#00e6c7" d="M 37.5,30.5 C 38.1667,30.8333 38.8333,31.1667 39.5,31.5C 39.8102,33.1436 40.8102,34.1436 42.5,34.5C 43.8333,37.1667 45.8333,39.1667 48.5,40.5C 50.4725,43.8059 53.1392,46.4726 56.5,48.5C 57.0184,49.5774 57.3517,50.7441 57.5,52C 56.2516,54.0726 55.2516,56.2393 54.5,58.5C 54.5,58.8333 54.5,59.1667 54.5,59.5C 52.9256,59.9371 51.7589,60.9371 51,62.5C 50.0366,67.4205 50.5366,72.0871 52.5,76.5C 50.5,75.8333 49.1667,74.5 48.5,72.5C 48.1774,68.774 48.5108,65.1073 49.5,61.5C 51.2956,58.742 52.9623,55.9087 54.5,53C 53.4903,46.7703 51.157,46.1036 47.5,51C 48.0219,51.5613 48.3552,52.228 48.5,53C 46.5084,56.3317 45.0084,59.8317 44,63.5C 43.502,66.4816 43.3354,69.4816 43.5,72.5C 43.0623,73.5063 42.3957,73.5063 41.5,72.5C 41.1534,66.9431 41.8201,61.6098 43.5,56.5C 44.625,55.3478 44.625,54.3478 43.5,53.5C 42.1802,51.1829 40.5136,49.1829 38.5,47.5C 38.1575,45.7748 37.1575,45.2748 35.5,46C 34.4178,47.3297 33.7512,48.8297 33.5,50.5C 33.5,50.8333 33.5,51.1667 33.5,51.5C 31.5923,52.4856 30.5923,54.1523 30.5,56.5C 27.4636,65.9915 28.1302,75.3248 32.5,84.5C 32.6495,85.552 32.4828,86.552 32,87.5C 30.1129,85.9739 29.1129,83.9739 29,81.5C 26.0733,83.0704 25.0733,85.4038 26,88.5C 27.3231,90.8386 28.8231,93.0053 30.5,95C 29.552,95.4828 28.552,95.6495 27.5,95.5C 25.0905,91.7422 23.0905,87.7422 21.5,83.5C 21.0431,82.7025 20.3764,82.3691 19.5,82.5C 19.5,81.8333 19.5,81.1667 19.5,80.5C 20.404,79.791 20.7373,78.791 20.5,77.5C 20.5,71.5 20.5,65.5 20.5,59.5C 20.7038,56.4824 21.0371,53.4824 21.5,50.5C 21.5,50.1667 21.5,49.8333 21.5,49.5C 24.7115,47.0085 26.7115,43.6752 27.5,39.5C 30.2789,36.0454 33.6122,33.3787 37.5,31.5C 37.5,31.1667 37.5,30.8333 37.5,30.5 Z"/></g>
<g><path style="opacity:1" fill="#00e0c4" d="M 70.5,31.5 C 70.369,32.2389 70.5357,32.9056 71,33.5C 77.6973,39.0317 83.864,45.0317 89.5,51.5C 88.216,53.6138 86.216,54.6138 83.5,54.5C 83.3832,56.4835 84.0499,58.1502 85.5,59.5C 85.0431,60.2975 84.3764,60.6309 83.5,60.5C 83.1583,59.6618 82.4916,59.3284 81.5,59.5C 81.5,59.1667 81.5,58.8333 81.5,58.5C 81.631,57.7611 81.4643,57.0944 81,56.5C 74.9101,49.9043 68.4101,43.9043 61.5,38.5C 61.5,37.5 61.5,36.5 61.5,35.5C 63.5,34.8333 64.8333,33.5 65.5,31.5C 66.4584,31.0472 67.2917,30.3805 68,29.5C 68.7083,30.3805 69.5416,31.0472 70.5,31.5 Z"/></g>
<g><path style="opacity:0.027" fill="#008573" d="M 70.5,31.5 C 71.5832,31.5394 72.5832,31.8728 73.5,32.5C 78.8333,37.8333 84.1667,43.1667 89.5,48.5C 90.3857,49.325 90.719,50.325 90.5,51.5C 90.1667,51.5 89.8333,51.5 89.5,51.5C 83.864,45.0317 77.6973,39.0317 71,33.5C 70.5357,32.9056 70.369,32.2389 70.5,31.5 Z"/></g>
<g><path style="opacity:1" fill="#00dac2" d="M 110.5,47.5 C 109.778,47.9175 109.278,48.5842 109,49.5C 107.927,48.7203 106.76,48.887 105.5,50C 106.554,51.3876 106.72,52.8876 106,54.5C 105.617,53.944 105.117,53.6107 104.5,53.5C 104.5,52.1667 103.833,51.5 102.5,51.5C 102.5,51.1667 102.5,50.8333 102.5,50.5C 102.446,48.368 101.446,47.0347 99.5,46.5C 99.5,46.1667 99.5,45.8333 99.5,45.5C 99.4431,44.391 99.1098,43.391 98.5,42.5C 99.2389,42.631 99.9056,42.4643 100.5,42C 97.3172,38.9845 94.3172,35.8178 91.5,32.5C 93.316,31.0576 95.316,30.5576 97.5,31C 103.168,35.5317 107.501,41.0317 110.5,47.5 Z"/></g>
<g><path style="opacity:0.073" fill="#005143" d="M 42.5,34.5 C 43.2389,34.369 43.9056,34.5357 44.5,35C 46.2102,36.6508 47.5436,38.4842 48.5,40.5C 45.8333,39.1667 43.8333,37.1667 42.5,34.5 Z"/></g>
<g><path style="opacity:0.365" fill="#008f82" d="M 108.5,39.5 C 110.532,40.0478 111.532,41.3812 111.5,43.5C 111.5,44.1667 111.5,44.8333 111.5,45.5C 110.508,43.5439 109.508,41.5439 108.5,39.5 Z"/></g>
<g><path style="opacity:0.911" fill="#202120" d="M 250.5,42.5 C 261.498,41.0912 269.664,45.0912 275,54.5C 275.662,56.8127 276.162,59.146 276.5,61.5C 272.167,61.5 267.833,61.5 263.5,61.5C 262.318,54.7332 258.318,52.2332 251.5,54C 243.897,61.9852 243.563,70.3186 250.5,79C 257.514,81.8431 261.847,79.6765 263.5,72.5C 267.833,72.5 272.167,72.5 276.5,72.5C 275.753,81.5041 271.086,87.3374 262.5,90C 238.374,91.5289 228.874,80.3622 234,56.5C 236.956,48.702 242.456,44.0353 250.5,42.5 Z"/></g>
<g><path style="opacity:0.941" fill="#202120" d="M 418.5,42.5 C 419.93,42.4208 421.264,42.7542 422.5,43.5C 423.66,47.4589 423.827,51.4589 423,55.5C 417.011,53.0302 412.677,54.6968 410,60.5C 409.5,70.1609 409.334,79.8276 409.5,89.5C 405.167,89.5 400.833,89.5 396.5,89.5C 396.5,74.1667 396.5,58.8333 396.5,43.5C 400.5,43.5 404.5,43.5 408.5,43.5C 408.337,45.8568 408.503,48.1902 409,50.5C 410.593,45.8085 413.76,43.1418 418.5,42.5 Z"/></g>
<g><path style="opacity:0.923" fill="#202120" d="M 444.5,42.5 C 461.872,41.51 470.872,49.6767 471.5,67C 469.944,85.5463 459.944,93.2129 441.5,90C 432.786,87.2872 427.619,81.4539 426,72.5C 423.373,56.7066 429.54,46.7066 444.5,42.5 Z M 447.5,52.5 C 455.284,54.1354 458.617,58.9688 457.5,67C 458.16,77.6925 453.493,81.6925 443.5,79C 438.155,72.4176 437.322,65.2509 441,57.5C 442.805,55.1743 444.972,53.5077 447.5,52.5 Z"/></g>
<g><path style="opacity:0.936" fill="#202120" d="M 501.5,42.5 C 515.443,44.1246 522.443,52.1246 522.5,66.5C 521.849,86.3546 512.182,93.5213 493.5,88C 492.333,86.8333 491.167,85.6667 490,84.5C 489.5,91.1583 489.334,97.825 489.5,104.5C 485.167,104.5 480.833,104.5 476.5,104.5C 476.5,84.1667 476.5,63.8333 476.5,43.5C 480.833,43.5 485.167,43.5 489.5,43.5C 489.338,45.5273 489.505,47.5273 490,49.5C 492.868,45.4866 496.702,43.1532 501.5,42.5 Z M 496.5,53.5 C 502.362,53.189 506.196,55.8557 508,61.5C 508.977,66.7339 508.31,71.7339 506,76.5C 499.068,81.4167 493.735,80.0834 490,72.5C 487.769,64.4497 489.935,58.1164 496.5,53.5 Z"/></g>
<g><path style="opacity:0.923" fill="#202120" d="M 182.5,43.5 C 187.167,43.5 191.833,43.5 196.5,43.5C 196.333,54.1719 196.5,64.8385 197,75.5C 200.42,79.7532 204.587,80.5865 209.5,78C 210.701,77.0975 211.535,75.9308 212,74.5C 212.5,64.172 212.666,53.8387 212.5,43.5C 216.833,43.5 221.167,43.5 225.5,43.5C 225.5,58.8333 225.5,74.1667 225.5,89.5C 221.5,89.5 217.5,89.5 213.5,89.5C 214.229,82.1884 212.895,81.6884 209.5,88C 200.778,92.2359 192.945,91.0693 186,84.5C 184.25,81.7536 183.25,78.7536 183,75.5C 182.5,64.8385 182.333,54.1719 182.5,43.5 Z"/></g>
<g><path style="opacity:0.588" fill="#00a188" d="M 27.5,39.5 C 26.7115,43.6752 24.7115,47.0085 21.5,49.5C 20.9569,49.44 20.6236,49.1067 20.5,48.5C 22.2573,45.9861 23.7573,43.3194 25,40.5C 25.6708,39.7476 26.5041,39.4142 27.5,39.5 Z"/></g>
<g><path style="opacity:0.051" fill="#033a35" d="M 111.5,43.5 C 113.176,44.1834 113.843,45.5168 113.5,47.5C 113.167,47.5 112.833,47.5 112.5,47.5C 112.672,46.5084 112.338,45.8417 111.5,45.5C 111.5,44.8333 111.5,44.1667 111.5,43.5 Z"/></g>
<g><path style="opacity:0.063" fill="#005c4c" d="M 38.5,47.5 C 37.5,47.5 36.5,47.5 35.5,47.5C 35.7148,49.1788 35.0481,50.1788 33.5,50.5C 33.7512,48.8297 34.4178,47.3297 35.5,46C 37.1575,45.2748 38.1575,45.7748 38.5,47.5 Z"/></g>
<g><path style="opacity:0.184" fill="#006353" d="M 48.5,40.5 C 50.7339,42.3051 53.0672,44.1384 55.5,46C 56.2524,46.6708 56.5858,47.5041 56.5,48.5C 53.1392,46.4726 50.4725,43.8059 48.5,40.5 Z"/></g>
<g><path style="opacity:0.059" fill="#01463f" d="M 99.5,46.5 C 101.446,47.0347 102.446,48.368 102.5,50.5C 100.799,49.7886 99.7986,48.4553 99.5,46.5 Z"/></g>
<g><path style="opacity:1" fill="#00cfc6" d="M 110.5,47.5 C 111.044,49.5795 111.878,51.5795 113,53.5C 113.49,51.4546 113.323,49.4546 112.5,47.5C 112.833,47.5 113.167,47.5 113.5,47.5C 115.796,47.8041 116.129,48.8041 114.5,50.5C 114.993,52.8056 115.326,55.139 115.5,57.5C 115.5,64.1667 115.5,70.8333 115.5,77.5C 115.5,77.8333 115.5,78.1667 115.5,78.5C 114.834,74.3155 114.167,69.9822 113.5,65.5C 112.284,66.0016 111.117,66.3349 110,66.5C 109.667,64.5 109.333,62.5 109,60.5C 108.667,65.5 108.333,70.5 108,75.5C 107.617,76.056 107.117,76.3893 106.5,76.5C 108.1,69.9325 107.767,63.5992 105.5,57.5C 105.167,56.1667 104.833,54.8333 104.5,53.5C 105.117,53.6107 105.617,53.944 106,54.5C 106.72,52.8876 106.554,51.3876 105.5,50C 106.76,48.887 107.927,48.7203 109,49.5C 109.278,48.5842 109.778,47.9175 110.5,47.5 Z"/></g>
<g><path style="opacity:0.6" fill="#007a66" d="M 21.5,50.5 C 21.0371,53.4824 20.7038,56.4824 20.5,59.5C 19.8333,59.5 19.1667,59.5 18.5,59.5C 18.59,57.3037 18.9233,55.137 19.5,53C 19.6842,51.6244 20.3509,50.7911 21.5,50.5 Z"/></g>
<g><path style="opacity:0.255" fill="#007369" d="M 90.5,52.5 C 92.9118,52.6941 93.9118,54.0274 93.5,56.5C 91.7986,55.7886 90.7986,54.4553 90.5,52.5 Z"/></g>
<g><path style="opacity:0.29" fill="#005b4c" d="M 43.5,53.5 C 44.625,54.3478 44.625,55.3478 43.5,56.5C 43.1667,56.5 42.8333,56.5 42.5,56.5C 42.2627,55.209 42.596,54.209 43.5,53.5 Z"/></g>
<g><path style="opacity:0.051" fill="#007162" d="M 56.5,48.5 C 57.7479,49.3339 58.4146,50.6672 58.5,52.5C 58.5931,55.5755 57.2598,57.5755 54.5,58.5C 55.2516,56.2393 56.2516,54.0726 57.5,52C 57.3517,50.7441 57.0184,49.5774 56.5,48.5 Z"/></g>
<g><path style="opacity:0.222" fill="#008473" d="M 61.5,38.5 C 68.4101,43.9043 74.9101,49.9043 81,56.5C 81.4643,57.0944 81.631,57.7611 81.5,58.5C 74.3946,52.3063 67.7279,45.6396 61.5,38.5 Z"/></g>
<g><path style="opacity:0.294" fill="#006d66" d="M 114.5,50.5 C 115.649,50.7911 116.316,51.6244 116.5,53C 117.077,55.137 117.41,57.3037 117.5,59.5C 116.833,58.8333 116.167,58.1667 115.5,57.5C 115.326,55.139 114.993,52.8056 114.5,50.5 Z"/></g>
<g><path style="opacity:0.043" fill="#006957" d="M 33.5,51.5 C 33.117,54.8112 32.117,57.8112 30.5,60.5C 30.5,59.1667 30.5,57.8333 30.5,56.5C 30.5923,54.1523 31.5923,52.4856 33.5,51.5 Z"/></g>
<g><path style="opacity:0.024" fill="#004f4a" d="M 102.5,51.5 C 103.833,51.5 104.5,52.1667 104.5,53.5C 104.833,54.8333 105.167,56.1667 105.5,57.5C 105.5,57.8333 105.5,58.1667 105.5,58.5C 103.643,56.7185 102.643,54.3852 102.5,51.5 Z"/></g>
<g><path style="opacity:0.184" fill="#004136" d="M 42.5,56.5 C 42.7148,58.1788 42.0481,59.1788 40.5,59.5C 40.9321,58.2905 41.5987,57.2905 42.5,56.5 Z"/></g>
<g><path style="opacity:1" fill="#00d9ca" d="M 89.5,51.5 C 89.8333,51.5 90.1667,51.5 90.5,51.5C 90.5,51.8333 90.5,52.1667 90.5,52.5C 90.7986,54.4553 91.7986,55.7886 93.5,56.5C 94.2919,62.1302 94.6252,67.7969 94.5,73.5C 92.5977,70.6627 91.931,67.3293 92.5,63.5C 91.1779,63.33 90.0113,63.6634 89,64.5C 88.8444,68.1341 87.8444,71.4674 86,74.5C 85.5172,73.552 85.3505,72.552 85.5,71.5C 85.81,68.2869 85.4767,65.2869 84.5,62.5C 84.1667,61.8333 83.8333,61.1667 83.5,60.5C 84.3764,60.6309 85.0431,60.2975 85.5,59.5C 84.0499,58.1502 83.3832,56.4835 83.5,54.5C 86.216,54.6138 88.216,53.6138 89.5,51.5 Z"/></g>
<g><path style="opacity:1" fill="#00dabe" d="M 48.5,72.5 C 47.2578,74.5108 45.5911,74.5108 43.5,72.5C 43.3354,69.4816 43.502,66.4816 44,63.5C 45.0084,59.8317 46.5084,56.3317 48.5,53C 48.3552,52.228 48.0219,51.5613 47.5,51C 51.157,46.1036 53.4903,46.7703 54.5,53C 52.9623,55.9087 51.2956,58.742 49.5,61.5C 48.5108,65.1073 48.1774,68.774 48.5,72.5 Z"/></g>
<g><path style="opacity:0.278" fill="#00736e" d="M 93.5,56.5 C 94.1174,56.6107 94.6174,56.944 95,57.5C 95.4955,59.4727 95.6621,61.4727 95.5,63.5C 95.5,66.5 95.5,69.5 95.5,72.5C 95.9465,75.0101 95.2798,77.0101 93.5,78.5C 93.366,76.7085 93.6993,75.0418 94.5,73.5C 94.6252,67.7969 94.2919,62.1302 93.5,56.5 Z"/></g>
<g><path style="opacity:0.016" fill="#004b44" d="M 81.5,59.5 C 82.4916,59.3284 83.1583,59.6618 83.5,60.5C 83.8333,61.1667 84.1667,61.8333 84.5,62.5C 84.5,63.5 84.5,64.5 84.5,65.5C 82.9121,63.8867 81.9121,61.8867 81.5,59.5 Z"/></g>
<g><path style="opacity:0.66" fill="#00c6aa" d="M 18.5,59.5 C 19.1667,59.5 19.8333,59.5 20.5,59.5C 20.5,65.5 20.5,71.5 20.5,77.5C 19.8333,75.8333 19.1667,74.1667 18.5,72.5C 18.5,68.1667 18.5,63.8333 18.5,59.5 Z"/></g>
<g><path style="opacity:0.846" fill="#00b8b8" d="M 115.5,57.5 C 116.167,58.1667 116.833,58.8333 117.5,59.5C 117.5,65.5 117.5,71.5 117.5,77.5C 116.833,77.5 116.167,77.5 115.5,77.5C 115.5,70.8333 115.5,64.1667 115.5,57.5 Z"/></g>
<g><path style="opacity:0.429" fill="#008c79" d="M 30.5,56.5 C 30.5,57.8333 30.5,59.1667 30.5,60.5C 30.1902,68.6886 31.1902,76.6886 33.5,84.5C 33.1667,84.5 32.8333,84.5 32.5,84.5C 28.1302,75.3248 27.4636,65.9915 30.5,56.5 Z"/></g>
<g><path style="opacity:0.308" fill="#00706f" d="M 105.5,57.5 C 107.767,63.5992 108.1,69.9325 106.5,76.5C 105.398,80.7073 103.732,84.7073 101.5,88.5C 101.158,89.3382 100.492,89.6716 99.5,89.5C 99.0618,89.5654 98.7284,89.3988 98.5,89C 101.905,85.9889 103.905,82.1556 104.5,77.5C 105.496,71.2015 105.83,64.8682 105.5,58.5C 105.5,58.1667 105.5,57.8333 105.5,57.5 Z"/></g>
<g><path style="opacity:0.071" fill="#003a32" d="M 40.5,63.5 C 40.5,66.1667 40.5,68.8333 40.5,71.5C 39.2749,70.8478 38.6083,69.6811 38.5,68C 38.3068,65.9919 38.9735,64.4919 40.5,63.5 Z"/></g>
<g><path style="opacity:0.514" fill="#008d7c" d="M 42.5,56.5 C 42.8333,56.5 43.1667,56.5 43.5,56.5C 41.8201,61.6098 41.1534,66.9431 41.5,72.5C 42.038,74.1172 42.3713,75.7839 42.5,77.5C 40.6921,76.0821 40.0254,74.0821 40.5,71.5C 40.5,68.8333 40.5,66.1667 40.5,63.5C 40.5,62.1667 40.5,60.8333 40.5,59.5C 42.0481,59.1788 42.7148,58.1788 42.5,56.5 Z"/></g>
<g><path style="opacity:0.12" fill="#004947" d="M 95.5,72.5 C 95.5,69.5 95.5,66.5 95.5,63.5C 96.1174,63.3893 96.6174,63.056 97,62.5C 97.1667,64.1667 97.3333,65.8333 97.5,67.5C 97.4439,69.6397 96.7773,71.3064 95.5,72.5 Z"/></g>
<g><path style="opacity:0.514" fill="#007f72" d="M 54.5,59.5 C 53.9354,62.4952 52.9354,65.3285 51.5,68C 53.1895,70.9171 54.1895,74.0838 54.5,77.5C 53.8333,77.1667 53.1667,76.8333 52.5,76.5C 50.5366,72.0871 50.0366,67.4205 51,62.5C 51.7589,60.9371 52.9256,59.9371 54.5,59.5 Z"/></g>
<g><path style="opacity:0.075" fill="#006c67" d="M 84.5,62.5 C 85.4767,65.2869 85.81,68.2869 85.5,71.5C 84.8676,73.7426 83.5342,75.4093 81.5,76.5C 82.8004,72.9039 83.8004,69.2373 84.5,65.5C 84.5,64.5 84.5,63.5 84.5,62.5 Z"/></g>
<g><path style="opacity:1" fill="#00c8c6" d="M 94.5,73.5 C 93.6993,75.0418 93.366,76.7085 93.5,78.5C 93.5,78.8333 93.5,79.1667 93.5,79.5C 91.2591,80.2998 90.2591,81.9664 90.5,84.5C 89.8333,85.8333 88.8333,86.8333 87.5,87.5C 85.8102,87.8564 84.8102,88.8564 84.5,90.5C 84.1667,90.5 83.8333,90.5 83.5,90.5C 81.1877,91.3195 78.8543,92.1529 76.5,93C 75.7476,93.6708 75.4142,94.5041 75.5,95.5C 69.1222,95.7054 62.7889,95.3721 56.5,94.5C 56.5123,91.858 55.179,90.5246 52.5,90.5C 51.391,90.4431 50.391,90.1098 49.5,89.5C 49.5,88.8333 49.5,88.1667 49.5,87.5C 51.0518,88.6218 52.7184,89.1218 54.5,89C 55.6582,87.6385 55.6582,86.1385 54.5,84.5C 58.7224,85.2237 63.0557,86.2237 67.5,87.5C 69.1667,87.1667 70.8333,86.8333 72.5,86.5C 72.3764,85.8933 72.0431,85.56 71.5,85.5C 71.5,85.1667 71.5,84.8333 71.5,84.5C 75.1808,84.4271 77.5142,82.7604 78.5,79.5C 79.5,78.5 80.5,77.5 81.5,76.5C 83.5342,75.4093 84.8676,73.7426 85.5,71.5C 85.3505,72.552 85.5172,73.552 86,74.5C 87.8444,71.4674 88.8444,68.1341 89,64.5C 90.0113,63.6634 91.1779,63.33 92.5,63.5C 91.931,67.3293 92.5977,70.6627 94.5,73.5 Z"/></g>
<g><path style="opacity:0.999" fill="#00cbd1" d="M 115.5,78.5 C 114.148,84.5517 111.815,90.2183 108.5,95.5C 107.761,95.631 107.094,95.4643 106.5,95C 109.927,91.1179 111.427,86.6179 111,81.5C 109.307,84.1668 107.141,86.3335 104.5,88C 103.552,88.4828 102.552,88.6495 101.5,88.5C 103.732,84.7073 105.398,80.7073 106.5,76.5C 107.117,76.3893 107.617,76.056 108,75.5C 108.333,70.5 108.667,65.5 109,60.5C 109.333,62.5 109.667,64.5 110,66.5C 111.117,66.3349 112.284,66.0016 113.5,65.5C 114.167,69.9822 114.834,74.3155 115.5,78.5 Z"/></g>
<g><path style="opacity:0.341" fill="#007d6d" d="M 18.5,72.5 C 19.1667,74.1667 19.8333,75.8333 20.5,77.5C 20.7373,78.791 20.404,79.791 19.5,80.5C 18.612,77.9455 18.2786,75.2788 18.5,72.5 Z"/></g>
<g><path style="opacity:0.239" fill="#015750" d="M 42.5,79.5 C 44.7409,80.2998 45.7409,81.9664 45.5,84.5C 45.7409,81.9664 44.7409,80.2998 42.5,79.5 Z"/></g>
<g><path style="opacity:1" fill="#00d5c8" d="M 41.5,72.5 C 42.3957,73.5063 43.0623,73.5063 43.5,72.5C 45.5911,74.5108 47.2578,74.5108 48.5,72.5C 49.1667,74.5 50.5,75.8333 52.5,76.5C 53.1667,76.8333 53.8333,77.1667 54.5,77.5C 55.7777,77.7822 56.7777,78.4489 57.5,79.5C 57.281,80.675 57.6143,81.675 58.5,82.5C 62.3822,85.1608 66.7155,86.1608 71.5,85.5C 72.0431,85.56 72.3764,85.8933 72.5,86.5C 70.8333,86.8333 69.1667,87.1667 67.5,87.5C 63.0557,86.2237 58.7224,85.2237 54.5,84.5C 55.6582,86.1385 55.6582,87.6385 54.5,89C 52.7184,89.1218 51.0518,88.6218 49.5,87.5C 49.1583,86.6618 48.4916,86.3284 47.5,86.5C 46.5,86.1667 45.8333,85.5 45.5,84.5C 45.7409,81.9664 44.7409,80.2998 42.5,79.5C 42.5,78.8333 42.5,78.1667 42.5,77.5C 42.3713,75.7839 42.038,74.1172 41.5,72.5 Z"/></g>
<g><path style="opacity:0.012" fill="#005957" d="M 78.5,79.5 C 77.5142,82.7604 75.1808,84.4271 71.5,84.5C 68.6122,85.0102 66.2789,84.3435 64.5,82.5C 68.1817,82.6653 71.8484,82.4986 75.5,82C 76.6906,81.3021 77.6906,80.4687 78.5,79.5 Z"/></g>
<g><path style="opacity:0.051" fill="#005a5c" d="M 93.5,79.5 C 93.4077,81.8477 92.4077,83.5144 90.5,84.5C 90.2591,81.9664 91.2591,80.2998 93.5,79.5 Z"/></g>
<g><path style="opacity:0.514" fill="#008b87" d="M 57.5,79.5 C 59.3459,81.4546 61.6792,82.4546 64.5,82.5C 66.2789,84.3435 68.6122,85.0102 71.5,84.5C 71.5,84.8333 71.5,85.1667 71.5,85.5C 66.7155,86.1608 62.3822,85.1608 58.5,82.5C 57.6143,81.675 57.281,80.675 57.5,79.5 Z"/></g>
<g><path style="opacity:0.176" fill="#006259" d="M 19.5,82.5 C 20.3764,82.3691 21.0431,82.7025 21.5,83.5C 23.0905,87.7422 25.0905,91.7422 27.5,95.5C 27.5,96.1667 27.5,96.8333 27.5,97.5C 23.3428,93.4161 20.6761,88.4161 19.5,82.5 Z"/></g>
<g><path style="opacity:0.075" fill="#00584f" d="M 33.5,84.5 C 34.9063,84.9731 35.573,85.9731 35.5,87.5C 33.9519,87.1788 33.2852,86.1788 33.5,84.5 Z"/></g>
<g><path style="opacity:0.004" fill="#00636b" d="M 115.5,77.5 C 116.167,77.5 116.833,77.5 117.5,77.5C 117.056,85.5234 114.056,92.19 108.5,97.5C 108.5,96.8333 108.5,96.1667 108.5,95.5C 111.815,90.2183 114.148,84.5517 115.5,78.5C 115.5,78.1667 115.5,77.8333 115.5,77.5 Z"/></g>
<g><path style="opacity:0.02" fill="#00605a" d="M 47.5,86.5 C 48.4916,86.3284 49.1583,86.6618 49.5,87.5C 49.5,88.1667 49.5,88.8333 49.5,89.5C 48.5987,88.7095 47.9321,87.7095 47.5,86.5 Z"/></g>
<g><path style="opacity:0.008" fill="#003633" d="M 35.5,87.5 C 36.9744,88.4363 37.9744,89.7697 38.5,91.5C 36.0882,91.3059 35.0882,89.9726 35.5,87.5 Z"/></g>
<g><path style="opacity:0.106" fill="#005759" d="M 87.5,87.5 C 87.1898,89.1436 86.1898,90.1436 84.5,90.5C 84.8102,88.8564 85.8102,87.8564 87.5,87.5 Z"/></g>
<g><path style="opacity:0.196" fill="#006865" d="M 52.5,90.5 C 55.179,90.5246 56.5123,91.858 56.5,94.5C 54.8664,93.4188 53.533,92.0855 52.5,90.5 Z"/></g>
<g><path style="opacity:0.008" fill="#007578" d="M 83.5,90.5 C 81.5568,93.1477 78.8902,94.8144 75.5,95.5C 75.4142,94.5041 75.7476,93.6708 76.5,93C 78.8543,92.1529 81.1877,91.3195 83.5,90.5 Z"/></g>
<g><path style="opacity:1" fill="#00d0c7" d="M 32.5,84.5 C 32.8333,84.5 33.1667,84.5 33.5,84.5C 33.2852,86.1788 33.9519,87.1788 35.5,87.5C 35.0882,89.9726 36.0882,91.3059 38.5,91.5C 40.1897,93.5193 41.8564,95.5193 43.5,97.5C 43.5858,98.4959 43.2524,99.3292 42.5,100C 40.7795,100.739 39.1128,101.573 37.5,102.5C 38.8715,104.62 38.2048,105.62 35.5,105.5C 35.1436,103.81 34.1436,102.81 32.5,102.5C 32.1436,100.81 31.1436,99.8102 29.5,99.5C 28.8333,98.8333 28.1667,98.1667 27.5,97.5C 27.5,96.8333 27.5,96.1667 27.5,95.5C 28.552,95.6495 29.552,95.4828 30.5,95C 28.8231,93.0053 27.3231,90.8386 26,88.5C 25.0733,85.4038 26.0733,83.0704 29,81.5C 29.1129,83.9739 30.1129,85.9739 32,87.5C 32.4828,86.552 32.6495,85.552 32.5,84.5 Z"/></g>
<g><path style="opacity:0.149" fill="#006f6f" d="M 44.5,97.5 C 45.766,98.0899 47.0993,98.5899 48.5,99C 47.944,99.3826 47.6107,99.8826 47.5,100.5C 47.5654,100.938 47.3988,101.272 47,101.5C 45.5187,100.529 44.6854,99.1958 44.5,97.5 Z"/></g>
<g><path style="opacity:0.114" fill="#00595f" d="M 91.5,98.5 C 90.7582,100.35 89.7582,101.016 88.5,100.5C 88.8212,98.9519 89.8212,98.2852 91.5,98.5 Z"/></g>
<g><path style="opacity:0.078" fill="#00524f" d="M 29.5,99.5 C 31.1436,99.8102 32.1436,100.81 32.5,102.5C 30.8564,102.19 29.8564,101.19 29.5,99.5 Z"/></g>
<g><path style="opacity:0.08" fill="#005b59" d="M 32.5,102.5 C 34.1436,102.81 35.1436,103.81 35.5,105.5C 33.8564,105.19 32.8564,104.19 32.5,102.5 Z"/></g>
<g><path style="opacity:0.435" fill="#008082" d="M 49.5,100.5 C 51.1131,101.692 52.7798,102.692 54.5,103.5C 51.6273,104.89 49.9606,103.89 49.5,100.5 Z"/></g>
<g><path style="opacity:0.024" fill="#00545d" d="M 105.5,100.5 C 104.86,103.153 102.86,105.153 99.5,106.5C 101.118,104.215 103.118,102.215 105.5,100.5 Z"/></g>
<g><path style="opacity:0.294" fill="#006a6d" d="M 56.5,103.5 C 58.1993,103.527 59.5326,104.194 60.5,105.5C 59.4324,106.434 58.099,106.768 56.5,106.5C 56.5,105.5 56.5,104.5 56.5,103.5 Z"/></g>
<g><path style="opacity:0.447" fill="#008c96" d="M 80.5,103.5 C 80.4431,104.609 80.1098,105.609 79.5,106.5C 75.8465,106.888 72.1799,107.221 68.5,107.5C 66.0478,107.461 64.0478,106.794 62.5,105.5C 68.6401,105.765 74.6401,105.098 80.5,103.5 Z"/></g>
<g><path style="opacity:1" fill="#00c9d0" d="M 43.5,97.5 C 43.8333,97.5 44.1667,97.5 44.5,97.5C 44.6854,99.1958 45.5187,100.529 47,101.5C 47.3988,101.272 47.5654,100.938 47.5,100.5C 48.1667,100.5 48.8333,100.5 49.5,100.5C 49.9606,103.89 51.6273,104.89 54.5,103.5C 55.1667,103.5 55.8333,103.5 56.5,103.5C 56.5,104.5 56.5,105.5 56.5,106.5C 58.099,106.768 59.4324,106.434 60.5,105.5C 61.1667,105.5 61.8333,105.5 62.5,105.5C 64.0478,106.794 66.0478,107.461 68.5,107.5C 72.1799,107.221 75.8465,106.888 79.5,106.5C 80.7383,106.81 80.7383,107.31 79.5,108C 72.6544,109.69 65.8211,109.857 59,108.5C 56.8844,109.743 54.7177,110.909 52.5,112C 56.449,112.807 56.449,113.307 52.5,113.5C 50.6883,113.229 49.0217,112.562 47.5,111.5C 48.8793,110.137 48.7126,109.137 47,108.5C 46.3333,109.167 45.6667,109.833 45,110.5C 42.6015,108.925 40.1015,107.592 37.5,106.5C 36.5084,106.672 35.8417,106.338 35.5,105.5C 38.2048,105.62 38.8715,104.62 37.5,102.5C 39.1128,101.573 40.7795,100.739 42.5,100C 43.2524,99.3292 43.5858,98.4959 43.5,97.5 Z"/></g>
<g><path style="opacity:1" fill="#00bdcc" d="M 108.5,95.5 C 108.5,96.1667 108.5,96.8333 108.5,97.5C 107.833,98.8333 106.833,99.8333 105.5,100.5C 103.118,102.215 101.118,104.215 99.5,106.5C 97.4233,109.238 94.7567,111.238 91.5,112.5C 90.3774,111.243 89.7107,111.576 89.5,113.5C 89.1667,113.5 88.8333,113.5 88.5,113.5C 88.2648,112.903 87.7648,112.57 87,112.5C 81.3986,114.303 75.8986,115.97 70.5,117.5C 69.1667,117.5 67.8333,117.5 66.5,117.5C 61.8011,116.293 57.1344,114.96 52.5,113.5C 56.449,113.307 56.449,112.807 52.5,112C 54.7177,110.909 56.8844,109.743 59,108.5C 65.8211,109.857 72.6544,109.69 79.5,108C 80.7383,107.31 80.7383,106.81 79.5,106.5C 80.1098,105.609 80.4431,104.609 80.5,103.5C 83.1931,102.448 85.8598,101.448 88.5,100.5C 89.7582,101.016 90.7582,100.35 91.5,98.5C 93.9319,95.3119 96.5985,92.3119 99.5,89.5C 100.492,89.6716 101.158,89.3382 101.5,88.5C 102.552,88.6495 103.552,88.4828 104.5,88C 107.141,86.3335 109.307,84.1668 111,81.5C 111.427,86.6179 109.927,91.1179 106.5,95C 107.094,95.4643 107.761,95.631 108.5,95.5 Z"/></g>
<g><path style="opacity:0.035" fill="#006b7b" d="M 91.5,112.5 C 91.1583,113.338 90.4916,113.672 89.5,113.5C 89.7107,111.576 90.3774,111.243 91.5,112.5 Z"/></g>
<g><path style="opacity:0.643" fill="#00929b" d="M 37.5,106.5 C 40.1015,107.592 42.6015,108.925 45,110.5C 45.6667,109.833 46.3333,109.167 47,108.5C 48.7126,109.137 48.8793,110.137 47.5,111.5C 49.0217,112.562 50.6883,113.229 52.5,113.5C 57.1344,114.96 61.8011,116.293 66.5,117.5C 63.1667,117.5 59.8333,117.5 56.5,117.5C 51.1119,115.894 45.9452,113.56 41,110.5C 39.251,109.59 38.0843,108.257 37.5,106.5 Z"/></g>
<g><path style="opacity:0.255" fill="#008493" d="M 88.5,113.5 C 85.8132,115.323 82.8132,116.657 79.5,117.5C 76.5,117.5 73.5,117.5 70.5,117.5C 75.8986,115.97 81.3986,114.303 87,112.5C 87.7648,112.57 88.2648,112.903 88.5,113.5 Z"/></g>
</svg>
