<?xml version="1.0" encoding="UTF-8"?>
<!DOCTYPE svg PUBLIC "-//W3C//DTD SVG 1.1//EN" "http://www.w3.org/Graphics/SVG/1.1/DTD/svg11.dtd">
<svg xmlns="http://www.w3.org/2000/svg" version="1.1" width="546px" height="118px" style="shape-rendering:geometricPrecision; text-rendering:geometricPrecision; image-rendering:optimizeQuality; fill-rule:evenodd; clip-rule:evenodd" xmlns:xlink="http://www.w3.org/1999/xlink">
<g><path style="opacity:0.757" fill="#fefffe" d="M 64.5,-0.5 C 66.8333,-0.5 69.1667,-0.5 71.5,-0.5C 83.1186,11.7853 95.1186,23.7853 107.5,35.5C 110.121,39.7693 112.787,44.1026 115.5,48.5C 115.291,49.086 114.957,49.586 114.5,50C 116.046,51.4396 116.879,53.2729 117,55.5C 118.115,66.6341 117.449,77.6341 115,88.5C 112.542,93.2191 109.375,97.3857 105.5,101C 105.833,101.333 106.167,101.667 106.5,102C 102.472,104.349 98.8055,107.183 95.5,110.5C 90.5246,113.887 85.1913,116.22 79.5,117.5C 71.8333,117.5 64.1667,117.5 56.5,117.5C 41.0584,112.203 29.2251,102.536 21,88.5C 18.5882,77.6244 17.9215,66.6244 19,55.5C 20.664,48.489 23.8306,41.8223 28.5,35.5C 30.8914,32.8865 33.7247,30.8865 37,29.5C 44.6372,34.9708 51.4706,41.3041 57.5,48.5C 59.1498,52.9016 58.1498,56.5683 54.5,59.5C 53.9335,62.5259 52.9335,65.3592 51.5,68C 54.7172,81.5933 63.0506,86.0933 76.5,81.5C 83.7031,75.1905 85.3698,67.8572 81.5,59.5C 75.1667,53.1667 68.8333,46.8333 62.5,40.5C 61.359,38.5787 61.1923,36.5787 62,34.5C 63.5116,32.3137 65.5116,30.647 68,29.5C 75.5889,35.2494 82.7555,41.5827 89.5,48.5C 92.9253,52.9385 95.0919,57.9385 96,63.5C 96.3333,63.1667 96.6667,62.8333 97,62.5C 98.0561,78.3541 91.2228,89.1874 76.5,95C 55.4187,97.7959 42.752,88.7959 38.5,68C 39.6635,62.8739 41.3302,57.8739 43.5,53C 41.8698,49.4796 39.2031,47.6463 35.5,47.5C 26.2588,68.7801 30.2588,86.2801 47.5,100C 70.3595,110.015 88.5261,105.182 102,85.5C 107.739,70.5111 106.073,56.5111 97,43.5C 84.9573,32.2912 73.4573,20.6246 62.5,8.5C 60.9218,4.95789 61.5885,1.95789 64.5,-0.5 Z"/></g>
<g><path style="opacity:0.568" fill="#fefffe" d="M 49.5,14.5 C 51.8568,14.3367 54.1902,14.5034 56.5,15C 56.1667,15.3333 55.8333,15.6667 55.5,16C 56.448,16.4828 57.448,16.6495 58.5,16.5C 60.1148,26.6022 56.2815,29.6022 47,25.5C 46.5,24 46,22.5 45.5,21C 46.3118,18.388 47.6451,16.2213 49.5,14.5 Z"/></g>
<g><path style="opacity:0.948" fill="#fefffe" d="M 162.5,27.5 C 166.833,27.5 171.167,27.5 175.5,27.5C 175.5,48.1667 175.5,68.8333 175.5,89.5C 171.167,89.5 166.833,89.5 162.5,89.5C 162.5,68.8333 162.5,48.1667 162.5,27.5 Z"/></g>
<g><path style="opacity:0.931" fill="#fefffe" d="M 281.5,27.5 C 285.833,27.5 290.167,27.5 294.5,27.5C 294.333,38.505 294.5,49.505 295,60.5C 299.833,55 304.667,49.5 309.5,44C 314.5,43.3333 319.5,43.3333 324.5,44C 318.647,50.3521 312.98,56.8521 307.5,63.5C 312.917,72.416 318.917,80.916 325.5,89C 320.167,89.6667 314.833,89.6667 309.5,89C 305.622,83.4114 301.622,77.9114 297.5,72.5C 296.522,72.9767 295.689,73.6433 295,74.5C 294.501,79.4889 294.334,84.4889 294.5,89.5C 290.167,89.5 285.833,89.5 281.5,89.5C 281.5,68.8333 281.5,48.1667 281.5,27.5 Z"/></g>
<g><path style="opacity:0.926" fill="#fefffe" d="M 376.5,27.5 C 380.833,27.5 385.167,27.5 389.5,27.5C 389.5,48.1667 389.5,68.8333 389.5,89.5C 385.167,89.5 380.833,89.5 376.5,89.5C 376.662,87.4727 376.495,85.4727 376,83.5C 371.435,89.8019 365.268,91.9686 357.5,90C 347.261,85.8737 342.594,78.2071 343.5,67C 343.906,46.5478 353.572,39.5478 372.5,46C 374.049,47.214 375.215,48.714 376,50.5C 376.5,42.8406 376.666,35.1739 376.5,27.5 Z M 364.5,53.5 C 371.268,53.4335 375.101,56.7668 376,63.5C 377.691,74.4606 373.191,79.6273 362.5,79C 355.902,72.1835 355.068,64.6835 360,56.5C 361.652,55.6006 363.152,54.6006 364.5,53.5 Z"/></g>
<g><path style="opacity:0.911" fill="#fefffe" d="M 250.5,42.5 C 261.498,41.0912 269.664,45.0912 275,54.5C 275.662,56.8127 276.162,59.146 276.5,61.5C 272.167,61.5 267.833,61.5 263.5,61.5C 262.318,54.7332 258.318,52.2332 251.5,54C 243.897,61.9852 243.563,70.3186 250.5,79C 257.514,81.8431 261.847,79.6765 263.5,72.5C 267.833,72.5 272.167,72.5 276.5,72.5C 275.753,81.5041 271.086,87.3374 262.5,90C 238.374,91.5289 228.874,80.3622 234,56.5C 236.956,48.702 242.456,44.0353 250.5,42.5 Z"/></g>
<g><path style="opacity:0.941" fill="#fefffe" d="M 418.5,42.5 C 419.93,42.4208 421.264,42.7542 422.5,43.5C 423.66,47.4589 423.827,51.4589 423,55.5C 417.011,53.0302 412.677,54.6968 410,60.5C 409.5,70.1609 409.334,79.8276 409.5,89.5C 405.167,89.5 400.833,89.5 396.5,89.5C 396.5,74.1667 396.5,58.8333 396.5,43.5C 400.5,43.5 404.5,43.5 408.5,43.5C 408.337,45.8568 408.503,48.1902 409,50.5C 410.593,45.8085 413.76,43.1418 418.5,42.5 Z"/></g>
<g><path style="opacity:0.923" fill="#fefffe" d="M 444.5,42.5 C 461.872,41.51 470.872,49.6767 471.5,67C 469.944,85.5463 459.944,93.2129 441.5,90C 432.786,87.2872 427.619,81.4539 426,72.5C 423.373,56.7066 429.54,46.7066 444.5,42.5 Z M 447.5,52.5 C 455.284,54.1354 458.617,58.9688 457.5,67C 458.16,77.6925 453.493,81.6925 443.5,79C 438.155,72.4176 437.322,65.2509 441,57.5C 442.805,55.1743 444.972,53.5077 447.5,52.5 Z"/></g>
<g><path style="opacity:0.936" fill="#fefffe" d="M 501.5,42.5 C 515.443,44.1246 522.443,52.1246 522.5,66.5C 521.849,86.3546 512.182,93.5213 493.5,88C 492.333,86.8333 491.167,85.6667 490,84.5C 489.5,91.1583 489.334,97.825 489.5,104.5C 485.167,104.5 480.833,104.5 476.5,104.5C 476.5,84.1667 476.5,63.8333 476.5,43.5C 480.833,43.5 485.167,43.5 489.5,43.5C 489.338,45.5273 489.505,47.5273 490,49.5C 492.868,45.4866 496.702,43.1532 501.5,42.5 Z M 496.5,53.5 C 502.362,53.189 506.196,55.8557 508,61.5C 508.977,66.7339 508.31,71.7339 506,76.5C 499.068,81.4167 493.735,80.0834 490,72.5C 487.769,64.4497 489.935,58.1164 496.5,53.5 Z"/></g>
<g><path style="opacity:0.923" fill="#fefffe" d="M 182.5,43.5 C 187.167,43.5 191.833,43.5 196.5,43.5C 196.333,54.1719 196.5,64.8385 197,75.5C 200.42,79.7532 204.587,80.5865 209.5,78C 210.701,77.0975 211.535,75.9308 212,74.5C 212.5,64.172 212.666,53.8387 212.5,43.5C 216.833,43.5 221.167,43.5 225.5,43.5C 225.5,58.8333 225.5,74.1667 225.5,89.5C 221.5,89.5 217.5,89.5 213.5,89.5C 214.229,82.1884 212.895,81.6884 209.5,88C 200.778,92.2359 192.945,91.0693 186,84.5C 184.25,81.7536 183.25,78.7536 183,75.5C 182.5,64.8385 182.333,54.1719 182.5,43.5 Z"/></g>
</svg>
